<svg width="200" height="200" viewBox="0 0 200 200" fill="none" xmlns="http://www.w3.org/2000/svg">
<path vector-effect="non-scaling-stroke" d="M0.5 100C0.5 79.4239 1.60317 62.9235 4.53262 49.7421C7.46082 36.5664 12.2071 26.7375 19.4723 19.4723C26.7375 12.2071 36.5664 7.46082 49.7421 4.53262C62.9235 1.60317 79.4239 0.5 100 0.5C120.576 0.5 137.077 1.60317 150.258 4.53262C163.434 7.46082 173.262 12.2071 180.528 19.4723C187.793 26.7375 192.539 36.5664 195.467 49.7421C198.397 62.9235 199.5 79.4239 199.5 100C199.5 120.576 198.397 137.077 195.467 150.258C192.539 163.434 187.793 173.262 180.528 180.528C173.262 187.793 163.434 192.539 150.258 195.467C137.077 198.397 120.576 199.5 100 199.5C79.4239 199.5 62.9235 198.397 49.7421 195.467C36.5664 192.539 26.7375 187.793 19.4723 180.528C12.2071 173.262 7.46082 163.434 4.53262 150.258C1.60317 137.077 0.5 120.576 0.5 100Z" stroke="black" stroke-opacity="0.1" stroke-width="2"/>
</svg>
