<?xml version="1.0" encoding="UTF-8"?>
<svg xmlns="http://www.w3.org/2000/svg" xmlns:xlink="http://www.w3.org/1999/xlink" width="150px" height="150px" viewBox="0 0 150 150" version="1.1">
<g id="surface1">
<path style="fill:none;stroke-width:2;stroke-linecap:butt;stroke-linejoin:miter;stroke:rgb(0%,0%,0%);stroke-opacity:0.101961;stroke-miterlimit:4;" d="M 0.5 100 C 0.5 79.421875 1.604167 62.921875 4.53125 49.739583 C 7.458333 36.567708 12.208333 26.739583 19.473958 19.473958 C 26.739583 12.208333 36.567708 7.458333 49.739583 4.53125 C 62.921875 1.604167 79.421875 0.5 100 0.5 C 120.578125 0.5 137.078125 1.604167 150.260417 4.53125 C 163.432292 7.458333 173.260417 12.208333 180.526042 19.473958 C 187.791667 26.739583 192.536458 36.567708 195.46875 49.739583 C 198.395833 62.921875 199.5 79.421875 199.5 100 C 199.5 120.578125 198.395833 137.078125 195.46875 150.260417 C 192.536458 163.432292 187.791667 173.260417 180.526042 180.526042 C 173.260417 187.791667 163.432292 192.536458 150.260417 195.46875 C 137.078125 198.395833 120.578125 199.5 100 199.5 C 79.421875 199.5 62.921875 198.395833 49.739583 195.46875 C 36.567708 192.536458 26.739583 187.791667 19.473958 180.526042 C 12.208333 173.260417 7.458333 163.432292 4.53125 150.260417 C 1.604167 137.078125 0.5 120.578125 0.5 100 Z M 0.5 100 " transform="matrix(0.75,0,0,0.75,0,0)"/>
</g>
</svg>
